solid model
  facet normal -0.105018495395 -0.010017214304 0.994419816296
    outer loop
      vertex -3.000000000000 -0.500000000000 -0.244647788103
      vertex -2.000000000000 -0.500000000000 -0.139039981748
      vertex -3.000000000000 -0.166666666667 -0.241289979480
    endloop
  endfacet
  facet normal 0.105008023796 0.009985362027 -0.994421242474
    outer loop
      vertex -2.000000000000 -0.500000000000 -0.139039981748
      vertex -3.000000000000 -0.166666666667 -0.241289979480
      vertex -2.000000000000 -0.166666666667 -0.135692854930
    endloop
  endfacet
  facet normal 0.000000000000 0.000000000000 1.000000000000
    outer loop
      vertex -3.000000000000 -0.500000000000 3.500000000000
      vertex -2.000000000000 -0.500000000000 3.500000000000
      vertex -3.000000000000 -0.166666666667 3.500000000000
    endloop
  endfacet
  facet normal 0.000000000000 0.000000000000 -1.000000000000
    outer loop
      vertex -2.000000000000 -0.500000000000 3.500000000000
      vertex -3.000000000000 -0.166666666667 3.500000000000
      vertex -2.000000000000 -0.166666666667 3.500000000000
    endloop
  endfacet
  facet normal -0.075013168094 -0.010012584531 0.997132274457
    outer loop
      vertex -2.000000000000 -0.500000000000 -0.139039981748
      vertex -1.000000000000 -0.500000000000 -0.063811077805
      vertex -2.000000000000 -0.166666666667 -0.135692854930
    endloop
  endfacet
  facet normal 0.075005681484 0.009989954308 -0.997133064620
    outer loop
      vertex -1.000000000000 -0.500000000000 -0.063811077805
      vertex -2.000000000000 -0.166666666667 -0.135692854930
      vertex -1.000000000000 -0.166666666667 -0.060471518735
    endloop
  endfacet
  facet normal 0.000000000000 0.000000000000 1.000000000000
    outer loop
      vertex -2.000000000000 -0.500000000000 3.500000000000
      vertex -1.000000000000 -0.500000000000 3.500000000000
      vertex -2.000000000000 -0.166666666667 3.500000000000
    endloop
  endfacet
  facet normal 0.000000000000 0.000000000000 -1.000000000000
    outer loop
      vertex -1.000000000000 -0.500000000000 3.500000000000
      vertex -2.000000000000 -0.166666666667 3.500000000000
      vertex -1.000000000000 -0.166666666667 3.500000000000
    endloop
  endfacet
  facet normal -0.045007884527 -0.010008022339 0.998936499393
    outer loop
      vertex -1.000000000000 -0.500000000000 -0.063811077805
      vertex 0.000000000000 -0.500000000000 -0.018755276406
      vertex -1.000000000000 -0.166666666667 -0.060471518735
    endloop
  endfacet
  facet normal 0.045003388474 0.009994491877 -0.998936837422
    outer loop
      vertex 0.000000000000 -0.500000000000 -0.018755276406
      vertex -1.000000000000 -0.166666666667 -0.060471518735
      vertex 0.000000000000 -0.166666666667 -0.015420233421
    endloop
  endfacet
  facet normal 0.000000000000 0.000000000000 1.000000000000
    outer loop
      vertex -1.000000000000 -0.500000000000 3.500000000000
      vertex 0.000000000000 -0.500000000000 3.500000000000
      vertex -1.000000000000 -0.166666666667 3.500000000000
    endloop
  endfacet
  facet normal 0.000000000000 0.000000000000 -1.000000000000
    outer loop
      vertex 0.000000000000 -0.500000000000 3.500000000000
      vertex -1.000000000000 -0.166666666667 3.500000000000
      vertex 0.000000000000 -0.166666666667 3.500000000000
    endloop
  endfacet
  facet normal -0.015002625807 -0.010003502245 0.999837412363
    outer loop
      vertex 0.000000000000 -0.500000000000 -0.018755276406
      vertex 1.000000000000 -0.500000000000 -0.003750210961
      vertex 0.000000000000 -0.166666666667 -0.015420233421
    endloop
  endfacet
  facet normal 0.015001125769 0.009998999769 -0.999837479908
    outer loop
      vertex 1.000000000000 -0.500000000000 -0.003750210961
      vertex 0.000000000000 -0.166666666667 -0.015420233421
      vertex 1.000000000000 -0.166666666667 -0.000416669271
    endloop
  endfacet
  facet normal 0.000000000000 0.000000000000 1.000000000000
    outer loop
      vertex 0.000000000000 -0.500000000000 3.500000000000
      vertex 1.000000000000 -0.500000000000 3.500000000000
      vertex 0.000000000000 -0.166666666667 3.500000000000
    endloop
  endfacet
  facet normal 0.000000000000 0.000000000000 -1.000000000000
    outer loop
      vertex 1.000000000000 -0.500000000000 3.500000000000
      vertex 0.000000000000 -0.166666666667 3.500000000000
      vertex 1.000000000000 -0.166666666667 3.500000000000
    endloop
  endfacet
  facet normal -0.105013259229 0.000000000000 0.994470821787
    outer loop
      vertex -3.000000000000 -0.166666666667 -0.241289979480
      vertex -2.000000000000 -0.166666666667 -0.135692854930
      vertex -3.000000000000 0.166666666667 -0.241289979480
    endloop
  endfacet
  facet normal 0.105013259229 0.000000000000 -0.994470821787
    outer loop
      vertex -2.000000000000 -0.166666666667 -0.135692854930
      vertex -3.000000000000 0.166666666667 -0.241289979480
      vertex -2.000000000000 0.166666666667 -0.135692854930
    endloop
  endfacet
  facet normal 0.000000000000 0.000000000000 1.000000000000
    outer loop
      vertex -3.000000000000 -0.166666666667 3.500000000000
      vertex -2.000000000000 -0.166666666667 3.500000000000
      vertex -3.000000000000 0.166666666667 3.500000000000
    endloop
  endfacet
  facet normal 0.000000000000 0.000000000000 -1.000000000000
    outer loop
      vertex -2.000000000000 -0.166666666667 3.500000000000
      vertex -3.000000000000 0.166666666667 3.500000000000
      vertex -2.000000000000 0.166666666667 3.500000000000
    endloop
  endfacet
  facet normal -0.075009424518 0.000000000000 0.997182824879
    outer loop
      vertex -2.000000000000 -0.166666666667 -0.135692854930
      vertex -1.000000000000 -0.166666666667 -0.060471518735
      vertex -2.000000000000 0.166666666667 -0.135692854930
    endloop
  endfacet
  facet normal 0.075009424518 0.000000000000 -0.997182824879
    outer loop
      vertex -1.000000000000 -0.166666666667 -0.060471518735
      vertex -2.000000000000 0.166666666667 -0.135692854930
      vertex -1.000000000000 0.166666666667 -0.060471518735
    endloop
  endfacet
  facet normal 0.000000000000 0.000000000000 1.000000000000
    outer loop
      vertex -2.000000000000 -0.166666666667 3.500000000000
      vertex -1.000000000000 -0.166666666667 3.500000000000
      vertex -2.000000000000 0.166666666667 3.500000000000
    endloop
  endfacet
  facet normal 0.000000000000 0.000000000000 -1.000000000000
    outer loop
      vertex -1.000000000000 -0.166666666667 3.500000000000
      vertex -2.000000000000 0.166666666667 3.500000000000
      vertex -1.000000000000 0.166666666667 3.500000000000
    endloop
  endfacet
  facet normal -0.045005636334 0.000000000000 0.998986732994
    outer loop
      vertex -1.000000000000 -0.166666666667 -0.060471518735
      vertex 0.000000000000 -0.166666666667 -0.015420233421
      vertex -1.000000000000 0.166666666667 -0.060471518735
    endloop
  endfacet
  facet normal 0.045005636334 0.000000000000 -0.998986732994
    outer loop
      vertex 0.000000000000 -0.166666666667 -0.015420233421
      vertex -1.000000000000 0.166666666667 -0.060471518735
      vertex 0.000000000000 0.166666666667 -0.015420233421
    endloop
  endfacet
  facet normal 0.000000000000 0.000000000000 1.000000000000
    outer loop
      vertex -1.000000000000 -0.166666666667 3.500000000000
      vertex 0.000000000000 -0.166666666667 3.500000000000
      vertex -1.000000000000 0.166666666667 3.500000000000
    endloop
  endfacet
  facet normal 0.000000000000 0.000000000000 -1.000000000000
    outer loop
      vertex 0.000000000000 -0.166666666667 3.500000000000
      vertex -1.000000000000 0.166666666667 3.500000000000
      vertex 0.000000000000 0.166666666667 3.500000000000
    endloop
  endfacet
  facet normal -0.015001875732 0.000000000000 0.999887465530
    outer loop
      vertex 0.000000000000 -0.166666666667 -0.015420233421
      vertex 1.000000000000 -0.166666666667 -0.000416669271
      vertex 0.000000000000 0.166666666667 -0.015420233421
    endloop
  endfacet
  facet normal 0.015001875732 0.000000000000 -0.999887465530
    outer loop
      vertex 1.000000000000 -0.166666666667 -0.000416669271
      vertex 0.000000000000 0.166666666667 -0.015420233421
      vertex 1.000000000000 0.166666666667 -0.000416669271
    endloop
  endfacet
  facet normal 0.000000000000 0.000000000000 1.000000000000
    outer loop
      vertex 0.000000000000 -0.166666666667 3.500000000000
      vertex 1.000000000000 -0.166666666667 3.500000000000
      vertex 0.000000000000 0.166666666667 3.500000000000
    endloop
  endfacet
  facet normal 0.000000000000 0.000000000000 -1.000000000000
    outer loop
      vertex 1.000000000000 -0.166666666667 3.500000000000
      vertex 0.000000000000 0.166666666667 3.500000000000
      vertex 1.000000000000 0.166666666667 3.500000000000
    endloop
  endfacet
  facet normal -0.105007990330 0.010017225478 0.994420925544
    outer loop
      vertex -3.000000000000 0.166666666667 -0.241289979480
      vertex -2.000000000000 0.166666666667 -0.135692854930
      vertex -3.000000000000 0.500000000000 -0.244647788103
    endloop
  endfacet
  facet normal 0.105018528866 -0.009985350889 -0.994420133225
    outer loop
      vertex -2.000000000000 0.166666666667 -0.135692854930
      vertex -3.000000000000 0.500000000000 -0.244647788103
      vertex -2.000000000000 0.500000000000 -0.139039981748
    endloop
  endfacet
  facet normal 0.000000000000 0.000000000000 1.000000000000
    outer loop
      vertex -3.000000000000 0.166666666667 3.500000000000
      vertex -2.000000000000 0.166666666667 3.500000000000
      vertex -3.000000000000 0.500000000000 3.500000000000
    endloop
  endfacet
  facet normal 0.000000000000 0.000000000000 -1.000000000000
    outer loop
      vertex -2.000000000000 0.166666666667 3.500000000000
      vertex -3.000000000000 0.500000000000 3.500000000000
      vertex -2.000000000000 0.500000000000 3.500000000000
    endloop
  endfacet
  facet normal -0.075005664502 0.010012590198 0.997132838859
    outer loop
      vertex -2.000000000000 0.166666666667 -0.135692854930
      vertex -1.000000000000 0.166666666667 -0.060471518735
      vertex -2.000000000000 0.500000000000 -0.139039981748
    endloop
  endfacet
  facet normal 0.075013185077 -0.009989948654 -0.997132500218
    outer loop
      vertex -1.000000000000 0.166666666667 -0.060471518735
      vertex -2.000000000000 0.500000000000 -0.139039981748
      vertex -1.000000000000 0.500000000000 -0.063811077805
    endloop
  endfacet
  facet normal 0.000000000000 0.000000000000 1.000000000000
    outer loop
      vertex -2.000000000000 0.166666666667 3.500000000000
      vertex -1.000000000000 0.166666666667 3.500000000000
      vertex -2.000000000000 0.500000000000 3.500000000000
    endloop
  endfacet
  facet normal 0.000000000000 0.000000000000 -1.000000000000
    outer loop
      vertex -1.000000000000 0.166666666667 3.500000000000
      vertex -2.000000000000 0.500000000000 3.500000000000
      vertex -1.000000000000 0.500000000000 3.500000000000
    endloop
  endfacet
  facet normal -0.045003382383 0.010008024371 0.998936702210
    outer loop
      vertex -1.000000000000 0.166666666667 -0.060471518735
      vertex 0.000000000000 0.166666666667 -0.015420233421
      vertex -1.000000000000 0.500000000000 -0.063811077805
    endloop
  endfacet
  facet normal 0.045007890619 -0.009994489848 -0.998936634604
    outer loop
      vertex 0.000000000000 0.166666666667 -0.015420233421
      vertex -1.000000000000 0.500000000000 -0.063811077805
      vertex 0.000000000000 0.500000000000 -0.018755276406
    endloop
  endfacet
  facet normal 0.000000000000 0.000000000000 1.000000000000
    outer loop
      vertex -1.000000000000 0.166666666667 3.500000000000
      vertex 0.000000000000 0.166666666667 3.500000000000
      vertex -1.000000000000 0.500000000000 3.500000000000
    endloop
  endfacet
  facet normal 0.000000000000 0.000000000000 -1.000000000000
    outer loop
      vertex 0.000000000000 0.166666666667 3.500000000000
      vertex -1.000000000000 0.500000000000 3.500000000000
      vertex 0.000000000000 0.500000000000 3.500000000000
    endloop
  endfacet
  facet normal -0.015001125094 0.010003502471 0.999837434878
    outer loop
      vertex 0.000000000000 0.166666666667 -0.015420233421
      vertex 1.000000000000 0.166666666667 -0.000416669271
      vertex 0.000000000000 0.500000000000 -0.018755276406
    endloop
  endfacet
  facet normal 0.015002626482 -0.009998999543 -0.999837457393
    outer loop
      vertex 1.000000000000 0.166666666667 -0.000416669271
      vertex 0.000000000000 0.500000000000 -0.018755276406
      vertex 1.000000000000 0.500000000000 -0.003750210961
    endloop
  endfacet
  facet normal 0.000000000000 0.000000000000 1.000000000000
    outer loop
      vertex 0.000000000000 0.166666666667 3.500000000000
      vertex 1.000000000000 0.166666666667 3.500000000000
      vertex 0.000000000000 0.500000000000 3.500000000000
    endloop
  endfacet
  facet normal 0.000000000000 0.000000000000 -1.000000000000
    outer loop
      vertex 1.000000000000 0.166666666667 3.500000000000
      vertex 0.000000000000 0.500000000000 3.500000000000
      vertex 1.000000000000 0.500000000000 3.500000000000
    endloop
  endfacet
  facet normal 1.000000000000 0.000000000000 0.000000000000
    outer loop
      vertex -3.000000000000 -0.500000000000 -0.244647788103
      vertex -3.000000000000 -0.166666666667 -0.241289979480
      vertex -3.000000000000 -0.500000000000 1.000000000000
    endloop
  endfacet
  facet normal -1.000000000000 0.000000000000 0.000000000000
    outer loop
      vertex -3.000000000000 -0.166666666667 -0.241289979480
      vertex -3.000000000000 -0.500000000000 1.000000000000
      vertex -3.000000000000 -0.166666666667 1.000000000000
    endloop
  endfacet
  facet normal 1.000000000000 0.000000000000 0.000000000000
    outer loop
      vertex -3.000000000000 -0.500000000000 1.000000000000
      vertex -3.000000000000 -0.166666666667 1.000000000000
      vertex -3.000000000000 -0.500000000000 2.000000000000
    endloop
  endfacet
  facet normal -1.000000000000 0.000000000000 0.000000000000
    outer loop
      vertex -3.000000000000 -0.166666666667 1.000000000000
      vertex -3.000000000000 -0.500000000000 2.000000000000
      vertex -3.000000000000 -0.166666666667 2.000000000000
    endloop
  endfacet
  facet normal 1.000000000000 0.000000000000 0.000000000000
    outer loop
      vertex -3.000000000000 -0.500000000000 2.000000000000
      vertex -3.000000000000 -0.166666666667 2.000000000000
      vertex -3.000000000000 -0.500000000000 3.500000000000
    endloop
  endfacet
  facet normal -1.000000000000 0.000000000000 0.000000000000
    outer loop
      vertex -3.000000000000 -0.166666666667 2.000000000000
      vertex -3.000000000000 -0.500000000000 3.500000000000
      vertex -3.000000000000 -0.166666666667 3.500000000000
    endloop
  endfacet
  facet normal 1.000000000000 0.000000000000 0.000000000000
    outer loop
      vertex -3.000000000000 -0.166666666667 -0.241289979480
      vertex -3.000000000000 0.166666666667 -0.241289979480
      vertex -3.000000000000 -0.166666666667 1.000000000000
    endloop
  endfacet
  facet normal -1.000000000000 0.000000000000 0.000000000000
    outer loop
      vertex -3.000000000000 0.166666666667 -0.241289979480
      vertex -3.000000000000 -0.166666666667 1.000000000000
      vertex -3.000000000000 0.166666666667 1.000000000000
    endloop
  endfacet
  facet normal 1.000000000000 0.000000000000 0.000000000000
    outer loop
      vertex -3.000000000000 -0.166666666667 1.000000000000
      vertex -3.000000000000 0.166666666667 1.000000000000
      vertex -3.000000000000 -0.166666666667 2.000000000000
    endloop
  endfacet
  facet normal -1.000000000000 0.000000000000 0.000000000000
    outer loop
      vertex -3.000000000000 0.166666666667 1.000000000000
      vertex -3.000000000000 -0.166666666667 2.000000000000
      vertex -3.000000000000 0.166666666667 2.000000000000
    endloop
  endfacet
  facet normal 1.000000000000 0.000000000000 0.000000000000
    outer loop
      vertex -3.000000000000 -0.166666666667 2.000000000000
      vertex -3.000000000000 0.166666666667 2.000000000000
      vertex -3.000000000000 -0.166666666667 3.500000000000
    endloop
  endfacet
  facet normal -1.000000000000 0.000000000000 0.000000000000
    outer loop
      vertex -3.000000000000 0.166666666667 2.000000000000
      vertex -3.000000000000 -0.166666666667 3.500000000000
      vertex -3.000000000000 0.166666666667 3.500000000000
    endloop
  endfacet
  facet normal 1.000000000000 -0.000000000000 0.000000000000
    outer loop
      vertex -3.000000000000 0.166666666667 -0.241289979480
      vertex -3.000000000000 0.500000000000 -0.244647788103
      vertex -3.000000000000 0.166666666667 1.000000000000
    endloop
  endfacet
  facet normal -1.000000000000 0.000000000000 0.000000000000
    outer loop
      vertex -3.000000000000 0.500000000000 -0.244647788103
      vertex -3.000000000000 0.166666666667 1.000000000000
      vertex -3.000000000000 0.500000000000 1.000000000000
    endloop
  endfacet
  facet normal 1.000000000000 0.000000000000 0.000000000000
    outer loop
      vertex -3.000000000000 0.166666666667 1.000000000000
      vertex -3.000000000000 0.500000000000 1.000000000000
      vertex -3.000000000000 0.166666666667 2.000000000000
    endloop
  endfacet
  facet normal -1.000000000000 0.000000000000 0.000000000000
    outer loop
      vertex -3.000000000000 0.500000000000 1.000000000000
      vertex -3.000000000000 0.166666666667 2.000000000000
      vertex -3.000000000000 0.500000000000 2.000000000000
    endloop
  endfacet
  facet normal 1.000000000000 0.000000000000 0.000000000000
    outer loop
      vertex -3.000000000000 0.166666666667 2.000000000000
      vertex -3.000000000000 0.500000000000 2.000000000000
      vertex -3.000000000000 0.166666666667 3.500000000000
    endloop
  endfacet
  facet normal -1.000000000000 0.000000000000 0.000000000000
    outer loop
      vertex -3.000000000000 0.500000000000 2.000000000000
      vertex -3.000000000000 0.166666666667 3.500000000000
      vertex -3.000000000000 0.500000000000 3.500000000000
    endloop
  endfacet
  facet normal 1.000000000000 0.000000000000 0.000000000000
    outer loop
      vertex 1.000000000000 -0.500000000000 -0.003750210961
      vertex 1.000000000000 -0.166666666667 -0.000416669271
      vertex 1.000000000000 -0.500000000000 1.000000000000
    endloop
  endfacet
  facet normal -1.000000000000 0.000000000000 0.000000000000
    outer loop
      vertex 1.000000000000 -0.166666666667 -0.000416669271
      vertex 1.000000000000 -0.500000000000 1.000000000000
      vertex 1.000000000000 -0.166666666667 1.000000000000
    endloop
  endfacet
  facet normal 1.000000000000 0.000000000000 0.000000000000
    outer loop
      vertex 1.000000000000 -0.500000000000 1.000000000000
      vertex 1.000000000000 -0.166666666667 1.000000000000
      vertex 1.000000000000 -0.500000000000 2.000000000000
    endloop
  endfacet
  facet normal -1.000000000000 0.000000000000 0.000000000000
    outer loop
      vertex 1.000000000000 -0.166666666667 1.000000000000
      vertex 1.000000000000 -0.500000000000 2.000000000000
      vertex 1.000000000000 -0.166666666667 2.000000000000
    endloop
  endfacet
  facet normal 1.000000000000 0.000000000000 0.000000000000
    outer loop
      vertex 1.000000000000 -0.500000000000 2.000000000000
      vertex 1.000000000000 -0.166666666667 2.000000000000
      vertex 1.000000000000 -0.500000000000 3.500000000000
    endloop
  endfacet
  facet normal -1.000000000000 0.000000000000 0.000000000000
    outer loop
      vertex 1.000000000000 -0.166666666667 2.000000000000
      vertex 1.000000000000 -0.500000000000 3.500000000000
      vertex 1.000000000000 -0.166666666667 3.500000000000
    endloop
  endfacet
  facet normal 1.000000000000 0.000000000000 0.000000000000
    outer loop
      vertex 1.000000000000 -0.166666666667 -0.000416669271
      vertex 1.000000000000 0.166666666667 -0.000416669271
      vertex 1.000000000000 -0.166666666667 1.000000000000
    endloop
  endfacet
  facet normal -1.000000000000 0.000000000000 0.000000000000
    outer loop
      vertex 1.000000000000 0.166666666667 -0.000416669271
      vertex 1.000000000000 -0.166666666667 1.000000000000
      vertex 1.000000000000 0.166666666667 1.000000000000
    endloop
  endfacet
  facet normal 1.000000000000 0.000000000000 0.000000000000
    outer loop
      vertex 1.000000000000 -0.166666666667 1.000000000000
      vertex 1.000000000000 0.166666666667 1.000000000000
      vertex 1.000000000000 -0.166666666667 2.000000000000
    endloop
  endfacet
  facet normal -1.000000000000 0.000000000000 0.000000000000
    outer loop
      vertex 1.000000000000 0.166666666667 1.000000000000
      vertex 1.000000000000 -0.166666666667 2.000000000000
      vertex 1.000000000000 0.166666666667 2.000000000000
    endloop
  endfacet
  facet normal 1.000000000000 0.000000000000 0.000000000000
    outer loop
      vertex 1.000000000000 -0.166666666667 2.000000000000
      vertex 1.000000000000 0.166666666667 2.000000000000
      vertex 1.000000000000 -0.166666666667 3.500000000000
    endloop
  endfacet
  facet normal -1.000000000000 0.000000000000 0.000000000000
    outer loop
      vertex 1.000000000000 0.166666666667 2.000000000000
      vertex 1.000000000000 -0.166666666667 3.500000000000
      vertex 1.000000000000 0.166666666667 3.500000000000
    endloop
  endfacet
  facet normal 1.000000000000 -0.000000000000 0.000000000000
    outer loop
      vertex 1.000000000000 0.166666666667 -0.000416669271
      vertex 1.000000000000 0.500000000000 -0.003750210961
      vertex 1.000000000000 0.166666666667 1.000000000000
    endloop
  endfacet
  facet normal -1.000000000000 0.000000000000 0.000000000000
    outer loop
      vertex 1.000000000000 0.500000000000 -0.003750210961
      vertex 1.000000000000 0.166666666667 1.000000000000
      vertex 1.000000000000 0.500000000000 1.000000000000
    endloop
  endfacet
  facet normal 1.000000000000 0.000000000000 0.000000000000
    outer loop
      vertex 1.000000000000 0.166666666667 1.000000000000
      vertex 1.000000000000 0.500000000000 1.000000000000
      vertex 1.000000000000 0.166666666667 2.000000000000
    endloop
  endfacet
  facet normal -1.000000000000 0.000000000000 0.000000000000
    outer loop
      vertex 1.000000000000 0.500000000000 1.000000000000
      vertex 1.000000000000 0.166666666667 2.000000000000
      vertex 1.000000000000 0.500000000000 2.000000000000
    endloop
  endfacet
  facet normal 1.000000000000 0.000000000000 0.000000000000
    outer loop
      vertex 1.000000000000 0.166666666667 2.000000000000
      vertex 1.000000000000 0.500000000000 2.000000000000
      vertex 1.000000000000 0.166666666667 3.500000000000
    endloop
  endfacet
  facet normal -1.000000000000 0.000000000000 0.000000000000
    outer loop
      vertex 1.000000000000 0.500000000000 2.000000000000
      vertex 1.000000000000 0.166666666667 3.500000000000
      vertex 1.000000000000 0.500000000000 3.500000000000
    endloop
  endfacet
  facet normal 0.000000000000 -1.000000000000 0.000000000000
    outer loop
      vertex -3.000000000000 -0.500000000000 -0.244647788103
      vertex -2.000000000000 -0.500000000000 -0.139039981748
      vertex -3.000000000000 -0.500000000000 1.000000000000
    endloop
  endfacet
  facet normal 0.000000000000 1.000000000000 -0.000000000000
    outer loop
      vertex -2.000000000000 -0.500000000000 -0.139039981748
      vertex -3.000000000000 -0.500000000000 1.000000000000
      vertex -2.000000000000 -0.500000000000 1.000000000000
    endloop
  endfacet
  facet normal 0.000000000000 -1.000000000000 0.000000000000
    outer loop
      vertex -3.000000000000 -0.500000000000 1.000000000000
      vertex -2.000000000000 -0.500000000000 1.000000000000
      vertex -3.000000000000 -0.500000000000 2.000000000000
    endloop
  endfacet
  facet normal 0.000000000000 1.000000000000 -0.000000000000
    outer loop
      vertex -2.000000000000 -0.500000000000 1.000000000000
      vertex -3.000000000000 -0.500000000000 2.000000000000
      vertex -2.000000000000 -0.500000000000 2.000000000000
    endloop
  endfacet
  facet normal 0.000000000000 -1.000000000000 0.000000000000
    outer loop
      vertex -3.000000000000 -0.500000000000 2.000000000000
      vertex -2.000000000000 -0.500000000000 2.000000000000
      vertex -3.000000000000 -0.500000000000 3.500000000000
    endloop
  endfacet
  facet normal 0.000000000000 1.000000000000 -0.000000000000
    outer loop
      vertex -2.000000000000 -0.500000000000 2.000000000000
      vertex -3.000000000000 -0.500000000000 3.500000000000
      vertex -2.000000000000 -0.500000000000 3.500000000000
    endloop
  endfacet
  facet normal 0.000000000000 -1.000000000000 0.000000000000
    outer loop
      vertex -2.000000000000 -0.500000000000 -0.139039981748
      vertex -1.000000000000 -0.500000000000 -0.063811077805
      vertex -2.000000000000 -0.500000000000 1.000000000000
    endloop
  endfacet
  facet normal 0.000000000000 1.000000000000 -0.000000000000
    outer loop
      vertex -1.000000000000 -0.500000000000 -0.063811077805
      vertex -2.000000000000 -0.500000000000 1.000000000000
      vertex -1.000000000000 -0.500000000000 1.000000000000
    endloop
  endfacet
  facet normal 0.000000000000 -1.000000000000 0.000000000000
    outer loop
      vertex -2.000000000000 -0.500000000000 1.000000000000
      vertex -1.000000000000 -0.500000000000 1.000000000000
      vertex -2.000000000000 -0.500000000000 2.000000000000
    endloop
  endfacet
  facet normal 0.000000000000 1.000000000000 -0.000000000000
    outer loop
      vertex -1.000000000000 -0.500000000000 1.000000000000
      vertex -2.000000000000 -0.500000000000 2.000000000000
      vertex -1.000000000000 -0.500000000000 2.000000000000
    endloop
  endfacet
  facet normal 0.000000000000 -1.000000000000 0.000000000000
    outer loop
      vertex -2.000000000000 -0.500000000000 2.000000000000
      vertex -1.000000000000 -0.500000000000 2.000000000000
      vertex -2.000000000000 -0.500000000000 3.500000000000
    endloop
  endfacet
  facet normal 0.000000000000 1.000000000000 -0.000000000000
    outer loop
      vertex -1.000000000000 -0.500000000000 2.000000000000
      vertex -2.000000000000 -0.500000000000 3.500000000000
      vertex -1.000000000000 -0.500000000000 3.500000000000
    endloop
  endfacet
  facet normal 0.000000000000 -1.000000000000 0.000000000000
    outer loop
      vertex -1.000000000000 -0.500000000000 -0.063811077805
      vertex 0.000000000000 -0.500000000000 -0.018755276406
      vertex -1.000000000000 -0.500000000000 1.000000000000
    endloop
  endfacet
  facet normal 0.000000000000 1.000000000000 -0.000000000000
    outer loop
      vertex 0.000000000000 -0.500000000000 -0.018755276406
      vertex -1.000000000000 -0.500000000000 1.000000000000
      vertex 0.000000000000 -0.500000000000 1.000000000000
    endloop
  endfacet
  facet normal 0.000000000000 -1.000000000000 0.000000000000
    outer loop
      vertex -1.000000000000 -0.500000000000 1.000000000000
      vertex 0.000000000000 -0.500000000000 1.000000000000
      vertex -1.000000000000 -0.500000000000 2.000000000000
    endloop
  endfacet
  facet normal 0.000000000000 1.000000000000 -0.000000000000
    outer loop
      vertex 0.000000000000 -0.500000000000 1.000000000000
      vertex -1.000000000000 -0.500000000000 2.000000000000
      vertex 0.000000000000 -0.500000000000 2.000000000000
    endloop
  endfacet
  facet normal 0.000000000000 -1.000000000000 0.000000000000
    outer loop
      vertex -1.000000000000 -0.500000000000 2.000000000000
      vertex 0.000000000000 -0.500000000000 2.000000000000
      vertex -1.000000000000 -0.500000000000 3.500000000000
    endloop
  endfacet
  facet normal 0.000000000000 1.000000000000 -0.000000000000
    outer loop
      vertex 0.000000000000 -0.500000000000 2.000000000000
      vertex -1.000000000000 -0.500000000000 3.500000000000
      vertex 0.000000000000 -0.500000000000 3.500000000000
    endloop
  endfacet
  facet normal 0.000000000000 -1.000000000000 0.000000000000
    outer loop
      vertex 0.000000000000 -0.500000000000 -0.018755276406
      vertex 1.000000000000 -0.500000000000 -0.003750210961
      vertex 0.000000000000 -0.500000000000 1.000000000000
    endloop
  endfacet
  facet normal 0.000000000000 1.000000000000 -0.000000000000
    outer loop
      vertex 1.000000000000 -0.500000000000 -0.003750210961
      vertex 0.000000000000 -0.500000000000 1.000000000000
      vertex 1.000000000000 -0.500000000000 1.000000000000
    endloop
  endfacet
  facet normal 0.000000000000 -1.000000000000 0.000000000000
    outer loop
      vertex 0.000000000000 -0.500000000000 1.000000000000
      vertex 1.000000000000 -0.500000000000 1.000000000000
      vertex 0.000000000000 -0.500000000000 2.000000000000
    endloop
  endfacet
  facet normal 0.000000000000 1.000000000000 -0.000000000000
    outer loop
      vertex 1.000000000000 -0.500000000000 1.000000000000
      vertex 0.000000000000 -0.500000000000 2.000000000000
      vertex 1.000000000000 -0.500000000000 2.000000000000
    endloop
  endfacet
  facet normal 0.000000000000 -1.000000000000 0.000000000000
    outer loop
      vertex 0.000000000000 -0.500000000000 2.000000000000
      vertex 1.000000000000 -0.500000000000 2.000000000000
      vertex 0.000000000000 -0.500000000000 3.500000000000
    endloop
  endfacet
  facet normal 0.000000000000 1.000000000000 -0.000000000000
    outer loop
      vertex 1.000000000000 -0.500000000000 2.000000000000
      vertex 0.000000000000 -0.500000000000 3.500000000000
      vertex 1.000000000000 -0.500000000000 3.500000000000
    endloop
  endfacet
  facet normal 0.000000000000 -1.000000000000 0.000000000000
    outer loop
      vertex -3.000000000000 0.500000000000 -0.244647788103
      vertex -2.000000000000 0.500000000000 -0.139039981748
      vertex -3.000000000000 0.500000000000 1.000000000000
    endloop
  endfacet
  facet normal 0.000000000000 1.000000000000 -0.000000000000
    outer loop
      vertex -2.000000000000 0.500000000000 -0.139039981748
      vertex -3.000000000000 0.500000000000 1.000000000000
      vertex -2.000000000000 0.500000000000 1.000000000000
    endloop
  endfacet
  facet normal 0.000000000000 -1.000000000000 0.000000000000
    outer loop
      vertex -3.000000000000 0.500000000000 1.000000000000
      vertex -2.000000000000 0.500000000000 1.000000000000
      vertex -3.000000000000 0.500000000000 2.000000000000
    endloop
  endfacet
  facet normal 0.000000000000 1.000000000000 -0.000000000000
    outer loop
      vertex -2.000000000000 0.500000000000 1.000000000000
      vertex -3.000000000000 0.500000000000 2.000000000000
      vertex -2.000000000000 0.500000000000 2.000000000000
    endloop
  endfacet
  facet normal 0.000000000000 -1.000000000000 0.000000000000
    outer loop
      vertex -3.000000000000 0.500000000000 2.000000000000
      vertex -2.000000000000 0.500000000000 2.000000000000
      vertex -3.000000000000 0.500000000000 3.500000000000
    endloop
  endfacet
  facet normal 0.000000000000 1.000000000000 -0.000000000000
    outer loop
      vertex -2.000000000000 0.500000000000 2.000000000000
      vertex -3.000000000000 0.500000000000 3.500000000000
      vertex -2.000000000000 0.500000000000 3.500000000000
    endloop
  endfacet
  facet normal 0.000000000000 -1.000000000000 0.000000000000
    outer loop
      vertex -2.000000000000 0.500000000000 -0.139039981748
      vertex -1.000000000000 0.500000000000 -0.063811077805
      vertex -2.000000000000 0.500000000000 1.000000000000
    endloop
  endfacet
  facet normal 0.000000000000 1.000000000000 -0.000000000000
    outer loop
      vertex -1.000000000000 0.500000000000 -0.063811077805
      vertex -2.000000000000 0.500000000000 1.000000000000
      vertex -1.000000000000 0.500000000000 1.000000000000
    endloop
  endfacet
  facet normal 0.000000000000 -1.000000000000 0.000000000000
    outer loop
      vertex -2.000000000000 0.500000000000 1.000000000000
      vertex -1.000000000000 0.500000000000 1.000000000000
      vertex -2.000000000000 0.500000000000 2.000000000000
    endloop
  endfacet
  facet normal 0.000000000000 1.000000000000 -0.000000000000
    outer loop
      vertex -1.000000000000 0.500000000000 1.000000000000
      vertex -2.000000000000 0.500000000000 2.000000000000
      vertex -1.000000000000 0.500000000000 2.000000000000
    endloop
  endfacet
  facet normal 0.000000000000 -1.000000000000 0.000000000000
    outer loop
      vertex -2.000000000000 0.500000000000 2.000000000000
      vertex -1.000000000000 0.500000000000 2.000000000000
      vertex -2.000000000000 0.500000000000 3.500000000000
    endloop
  endfacet
  facet normal 0.000000000000 1.000000000000 -0.000000000000
    outer loop
      vertex -1.000000000000 0.500000000000 2.000000000000
      vertex -2.000000000000 0.500000000000 3.500000000000
      vertex -1.000000000000 0.500000000000 3.500000000000
    endloop
  endfacet
  facet normal 0.000000000000 -1.000000000000 0.000000000000
    outer loop
      vertex -1.000000000000 0.500000000000 -0.063811077805
      vertex 0.000000000000 0.500000000000 -0.018755276406
      vertex -1.000000000000 0.500000000000 1.000000000000
    endloop
  endfacet
  facet normal 0.000000000000 1.000000000000 -0.000000000000
    outer loop
      vertex 0.000000000000 0.500000000000 -0.018755276406
      vertex -1.000000000000 0.500000000000 1.000000000000
      vertex 0.000000000000 0.500000000000 1.000000000000
    endloop
  endfacet
  facet normal 0.000000000000 -1.000000000000 0.000000000000
    outer loop
      vertex -1.000000000000 0.500000000000 1.000000000000
      vertex 0.000000000000 0.500000000000 1.000000000000
      vertex -1.000000000000 0.500000000000 2.000000000000
    endloop
  endfacet
  facet normal 0.000000000000 1.000000000000 -0.000000000000
    outer loop
      vertex 0.000000000000 0.500000000000 1.000000000000
      vertex -1.000000000000 0.500000000000 2.000000000000
      vertex 0.000000000000 0.500000000000 2.000000000000
    endloop
  endfacet
  facet normal 0.000000000000 -1.000000000000 0.000000000000
    outer loop
      vertex -1.000000000000 0.500000000000 2.000000000000
      vertex 0.000000000000 0.500000000000 2.000000000000
      vertex -1.000000000000 0.500000000000 3.500000000000
    endloop
  endfacet
  facet normal 0.000000000000 1.000000000000 -0.000000000000
    outer loop
      vertex 0.000000000000 0.500000000000 2.000000000000
      vertex -1.000000000000 0.500000000000 3.500000000000
      vertex 0.000000000000 0.500000000000 3.500000000000
    endloop
  endfacet
  facet normal 0.000000000000 -1.000000000000 0.000000000000
    outer loop
      vertex 0.000000000000 0.500000000000 -0.018755276406
      vertex 1.000000000000 0.500000000000 -0.003750210961
      vertex 0.000000000000 0.500000000000 1.000000000000
    endloop
  endfacet
  facet normal 0.000000000000 1.000000000000 -0.000000000000
    outer loop
      vertex 1.000000000000 0.500000000000 -0.003750210961
      vertex 0.000000000000 0.500000000000 1.000000000000
      vertex 1.000000000000 0.500000000000 1.000000000000
    endloop
  endfacet
  facet normal 0.000000000000 -1.000000000000 0.000000000000
    outer loop
      vertex 0.000000000000 0.500000000000 1.000000000000
      vertex 1.000000000000 0.500000000000 1.000000000000
      vertex 0.000000000000 0.500000000000 2.000000000000
    endloop
  endfacet
  facet normal 0.000000000000 1.000000000000 -0.000000000000
    outer loop
      vertex 1.000000000000 0.500000000000 1.000000000000
      vertex 0.000000000000 0.500000000000 2.000000000000
      vertex 1.000000000000 0.500000000000 2.000000000000
    endloop
  endfacet
  facet normal 0.000000000000 -1.000000000000 0.000000000000
    outer loop
      vertex 0.000000000000 0.500000000000 2.000000000000
      vertex 1.000000000000 0.500000000000 2.000000000000
      vertex 0.000000000000 0.500000000000 3.500000000000
    endloop
  endfacet
  facet normal 0.000000000000 1.000000000000 -0.000000000000
    outer loop
      vertex 1.000000000000 0.500000000000 2.000000000000
      vertex 0.000000000000 0.500000000000 3.500000000000
      vertex 1.000000000000 0.500000000000 3.500000000000
    endloop
  endfacet
endsolid model
